<?xml version="1.0" encoding="utf-8" standalone="no"?>
<!DOCTYPE svg PUBLIC "-//W3C//DTD SVG 1.1//EN"
  "http://www.w3.org/Graphics/SVG/1.1/DTD/svg11.dtd">
<svg xmlns:xlink="http://www.w3.org/1999/xlink" width="288.598125pt" height="213.866675pt" viewBox="0 0 288.598125 213.866675" xmlns="http://www.w3.org/2000/svg" version="1.1">
 <metadata>
  <rdf:RDF xmlns:dc="http://purl.org/dc/elements/1.1/" xmlns:cc="http://creativecommons.org/ns#" xmlns:rdf="http://www.w3.org/1999/02/22-rdf-syntax-ns#">
   <cc:Work>
    <dc:type rdf:resource="http://purl.org/dc/dcmitype/StillImage"/>
    <dc:date>2026-07-15T08:51:40.247553</dc:date>
    <dc:format>image/svg+xml</dc:format>
    <dc:creator>
     <cc:Agent>
      <dc:title>Matplotlib v3.9.4, https://matplotlib.org/</dc:title>
     </cc:Agent>
    </dc:creator>
   </cc:Work>
  </rdf:RDF>
 </metadata>
 <defs>
  <style type="text/css">*{stroke-linejoin: round; stroke-linecap: butt}</style>
 </defs>
 <g id="figure_1">
  <g id="patch_1">
   <path d="M 0 213.866675 
L 288.598125 213.866675 
L 288.598125 0 
L 0 0 
z
" style="fill: #ffffff"/>
  </g>
  <g id="axes_1">
   <g id="patch_2">
    <path d="M 34.099375 101.95875 
L 229.399375 101.95875 
L 229.399375 14.59875 
L 34.099375 14.59875 
z
" style="fill: #ffffff"/>
   </g>
   <g id="PolyCollection_1">
    <defs>
     <path id="me9833f1f50" d="M 42.976648 -177.004957 
L 42.976648 -171.080437 
L 49.098905 -159.352167 
L 55.221162 -154.134611 
L 61.343419 -151.448641 
L 67.465676 -149.159858 
L 73.587933 -146.674919 
L 79.71019 -144.811775 
L 85.832447 -142.636998 
L 91.954704 -140.597109 
L 98.076961 -139.146958 
L 104.199218 -137.539645 
L 110.321475 -136.054848 
L 116.443732 -134.729441 
L 122.565989 -133.353163 
L 128.688246 -132.275561 
L 134.810504 -131.345393 
L 140.932761 -130.158545 
L 147.055018 -129.283947 
L 153.177275 -128.308798 
L 159.299532 -127.562539 
L 165.421789 -126.877645 
L 171.544046 -126.143324 
L 177.666303 -125.306164 
L 183.78856 -124.688438 
L 189.910817 -124.33441 
L 196.033074 -123.903428 
L 202.155331 -123.388607 
L 208.277588 -122.968623 
L 214.399845 -122.618661 
L 220.522102 -121.980228 
L 220.522102 -129.056856 
L 220.522102 -129.056856 
L 214.399845 -129.944217 
L 208.277588 -130.162579 
L 202.155331 -130.386573 
L 196.033074 -131.134112 
L 189.910817 -131.435506 
L 183.78856 -131.824311 
L 177.666303 -132.358617 
L 171.544046 -133.419922 
L 165.421789 -134.195108 
L 159.299532 -134.876169 
L 153.177275 -135.520656 
L 147.055018 -136.486033 
L 140.932761 -137.521463 
L 134.810504 -138.632136 
L 128.688246 -139.136765 
L 122.565989 -140.074788 
L 116.443732 -141.438991 
L 110.321475 -142.838372 
L 104.199218 -144.070592 
L 98.076961 -145.459099 
L 91.954704 -146.645455 
L 85.832447 -148.208842 
L 79.71019 -150.161325 
L 73.587933 -151.736115 
L 67.465676 -153.8038 
L 61.343419 -155.998471 
L 55.221162 -158.227858 
L 49.098905 -162.432191 
L 42.976648 -177.004957 
z
"/>
    </defs>
    <g clip-path="url(#pa1078e4d20)">
     <use xlink:href="#me9833f1f50" x="0" y="213.866675" style="fill: #0b8a8f; fill-opacity: 0.11"/>
    </g>
   </g>
   <g id="matplotlib.axis_1">
    <g id="xtick_1">
     <g id="line2d_1">
      <defs>
       <path id="m9bd5863175" d="M 0 0 
L 0 3.5 
" style="stroke: #000000; stroke-width: 0.8"/>
      </defs>
      <g>
       <use xlink:href="#m9bd5863175" x="36.854391" y="101.95875" style="stroke: #000000; stroke-width: 0.8"/>
      </g>
     </g>
     <g id="text_1">
      <text style="font: 6.2px 'DejaVu Sans'; text-anchor: middle" x="36.854391" y="113.669781" transform="rotate(-0 36.854391 113.669781)">0</text>
     </g>
    </g>
    <g id="xtick_2">
     <g id="line2d_2">
      <g>
       <use xlink:href="#m9bd5863175" x="67.465676" y="101.95875" style="stroke: #000000; stroke-width: 0.8"/>
      </g>
     </g>
     <g id="text_2">
      <text style="font: 6.2px 'DejaVu Sans'; text-anchor: middle" x="67.465676" y="113.669781" transform="rotate(-0 67.465676 113.669781)">5</text>
     </g>
    </g>
    <g id="xtick_3">
     <g id="line2d_3">
      <g>
       <use xlink:href="#m9bd5863175" x="98.076961" y="101.95875" style="stroke: #000000; stroke-width: 0.8"/>
      </g>
     </g>
     <g id="text_3">
      <text style="font: 6.2px 'DejaVu Sans'; text-anchor: middle" x="98.076961" y="113.669781" transform="rotate(-0 98.076961 113.669781)">10</text>
     </g>
    </g>
    <g id="xtick_4">
     <g id="line2d_4">
      <g>
       <use xlink:href="#m9bd5863175" x="128.688246" y="101.95875" style="stroke: #000000; stroke-width: 0.8"/>
      </g>
     </g>
     <g id="text_4">
      <text style="font: 6.2px 'DejaVu Sans'; text-anchor: middle" x="128.688246" y="113.669781" transform="rotate(-0 128.688246 113.669781)">15</text>
     </g>
    </g>
    <g id="xtick_5">
     <g id="line2d_5">
      <g>
       <use xlink:href="#m9bd5863175" x="159.299532" y="101.95875" style="stroke: #000000; stroke-width: 0.8"/>
      </g>
     </g>
     <g id="text_5">
      <text style="font: 6.2px 'DejaVu Sans'; text-anchor: middle" x="159.299532" y="113.669781" transform="rotate(-0 159.299532 113.669781)">20</text>
     </g>
    </g>
    <g id="xtick_6">
     <g id="line2d_6">
      <g>
       <use xlink:href="#m9bd5863175" x="189.910817" y="101.95875" style="stroke: #000000; stroke-width: 0.8"/>
      </g>
     </g>
     <g id="text_6">
      <text style="font: 6.2px 'DejaVu Sans'; text-anchor: middle" x="189.910817" y="113.669781" transform="rotate(-0 189.910817 113.669781)">25</text>
     </g>
    </g>
    <g id="xtick_7">
     <g id="line2d_7">
      <g>
       <use xlink:href="#m9bd5863175" x="220.522102" y="101.95875" style="stroke: #000000; stroke-width: 0.8"/>
      </g>
     </g>
     <g id="text_7">
      <text style="font: 6.2px 'DejaVu Sans'; text-anchor: middle" x="220.522102" y="113.669781" transform="rotate(-0 220.522102 113.669781)">30</text>
     </g>
    </g>
    <g id="text_8">
     <text style="font: 7px 'DejaVu Sans'; text-anchor: middle" x="131.749375" y="121.778094" transform="rotate(-0 131.749375 121.778094)">Epoch</text>
    </g>
   </g>
   <g id="matplotlib.axis_2">
    <g id="ytick_1">
     <g id="line2d_8">
      <path d="M 34.099375 100.622838 
L 229.399375 100.622838 
" clip-path="url(#pa1078e4d20)" style="fill: none; stroke: #dde3e8; stroke-width: 0.55; stroke-linecap: square"/>
     </g>
     <g id="line2d_9">
      <defs>
       <path id="m7f37e72a4b" d="M 0 0 
L -3.5 0 
" style="stroke: #000000; stroke-width: 0.8"/>
      </defs>
      <g>
       <use xlink:href="#m7f37e72a4b" x="34.099375" y="100.622838" style="stroke: #000000; stroke-width: 0.8"/>
      </g>
     </g>
     <g id="text_9">
      <text style="font: 6.2px 'DejaVu Sans'; text-anchor: end" x="27.099375" y="102.978353" transform="rotate(-0 27.099375 102.978353)">0.02</text>
     </g>
    </g>
    <g id="ytick_2">
     <g id="line2d_10">
      <path d="M 34.099375 85.72828 
L 229.399375 85.72828 
" clip-path="url(#pa1078e4d20)" style="fill: none; stroke: #dde3e8; stroke-width: 0.55; stroke-linecap: square"/>
     </g>
     <g id="line2d_11">
      <g>
       <use xlink:href="#m7f37e72a4b" x="34.099375" y="85.72828" style="stroke: #000000; stroke-width: 0.8"/>
      </g>
     </g>
     <g id="text_10">
      <text style="font: 6.2px 'DejaVu Sans'; text-anchor: end" x="27.099375" y="88.083796" transform="rotate(-0 27.099375 88.083796)">0.04</text>
     </g>
    </g>
    <g id="ytick_3">
     <g id="line2d_12">
      <path d="M 34.099375 70.833723 
L 229.399375 70.833723 
" clip-path="url(#pa1078e4d20)" style="fill: none; stroke: #dde3e8; stroke-width: 0.55; stroke-linecap: square"/>
     </g>
     <g id="line2d_13">
      <g>
       <use xlink:href="#m7f37e72a4b" x="34.099375" y="70.833723" style="stroke: #000000; stroke-width: 0.8"/>
      </g>
     </g>
     <g id="text_11">
      <text style="font: 6.2px 'DejaVu Sans'; text-anchor: end" x="27.099375" y="73.189239" transform="rotate(-0 27.099375 73.189239)">0.06</text>
     </g>
    </g>
    <g id="ytick_4">
     <g id="line2d_14">
      <path d="M 34.099375 55.939166 
L 229.399375 55.939166 
" clip-path="url(#pa1078e4d20)" style="fill: none; stroke: #dde3e8; stroke-width: 0.55; stroke-linecap: square"/>
     </g>
     <g id="line2d_15">
      <g>
       <use xlink:href="#m7f37e72a4b" x="34.099375" y="55.939166" style="stroke: #000000; stroke-width: 0.8"/>
      </g>
     </g>
     <g id="text_12">
      <text style="font: 6.2px 'DejaVu Sans'; text-anchor: end" x="27.099375" y="58.294681" transform="rotate(-0 27.099375 58.294681)">0.08</text>
     </g>
    </g>
    <g id="ytick_5">
     <g id="line2d_16">
      <path d="M 34.099375 41.044608 
L 229.399375 41.044608 
" clip-path="url(#pa1078e4d20)" style="fill: none; stroke: #dde3e8; stroke-width: 0.55; stroke-linecap: square"/>
     </g>
     <g id="line2d_17">
      <g>
       <use xlink:href="#m7f37e72a4b" x="34.099375" y="41.044608" style="stroke: #000000; stroke-width: 0.8"/>
      </g>
     </g>
     <g id="text_13">
      <text style="font: 6.2px 'DejaVu Sans'; text-anchor: end" x="27.099375" y="43.400124" transform="rotate(-0 27.099375 43.400124)">0.10</text>
     </g>
    </g>
    <g id="ytick_6">
     <g id="line2d_18">
      <path d="M 34.099375 26.150051 
L 229.399375 26.150051 
" clip-path="url(#pa1078e4d20)" style="fill: none; stroke: #dde3e8; stroke-width: 0.55; stroke-linecap: square"/>
     </g>
     <g id="line2d_19">
      <g>
       <use xlink:href="#m7f37e72a4b" x="34.099375" y="26.150051" style="stroke: #000000; stroke-width: 0.8"/>
      </g>
     </g>
     <g id="text_14">
      <text style="font: 6.2px 'DejaVu Sans'; text-anchor: end" x="27.099375" y="28.505567" transform="rotate(-0 27.099375 28.505567)">0.12</text>
     </g>
    </g>
    <g id="text_15">
     <text style="font: 7px 'DejaVu Sans'; text-anchor: middle" x="7.838906" y="58.27875" transform="rotate(-90 7.838906 58.27875)">Training MSE</text>
    </g>
   </g>
   <g id="line2d_20">
    <path d="M 42.976648 18.569659 
L 49.098905 44.998913 
L 55.221162 47.295561 
L 61.343419 48.058305 
L 67.465676 48.852782 
L 73.587933 49.610806 
L 79.71019 49.786342 
L 85.832447 50.979999 
L 91.954704 50.223907 
L 98.076961 50.783813 
L 104.199218 52.48058 
L 110.321475 52.936071 
L 116.443732 55.808007 
L 122.565989 56.146566 
L 128.688246 56.205975 
L 134.810504 57.744797 
L 140.932761 56.911367 
L 147.055018 59.275448 
L 153.177275 61.062372 
L 159.299532 60.642675 
L 165.421789 61.143993 
L 171.544046 61.665162 
L 177.666303 63.192873 
L 183.78856 64.130003 
L 189.910817 63.991428 
L 196.033074 63.724135 
L 202.155331 65.286419 
L 208.277588 63.242734 
L 214.399845 63.191818 
L 220.522102 64.594075 
" clip-path="url(#pa1078e4d20)" style="fill: none; stroke: #440154; stroke-opacity: 0.88; stroke-linecap: square"/>
   </g>
   <g id="line2d_21">
    <path d="M 42.976648 29.288285 
L 49.098905 47.915816 
L 55.221162 50.074874 
L 61.343419 51.250009 
L 67.465676 52.492373 
L 73.587933 54.082805 
L 79.71019 56.160064 
L 85.832447 58.872984 
L 91.954704 61.62774 
L 98.076961 62.78981 
L 104.199218 63.293015 
L 110.321475 63.164279 
L 116.443732 63.500253 
L 122.565989 66.030265 
L 128.688246 66.78627 
L 134.810504 63.261881 
L 140.932761 67.213873 
L 147.055018 67.913111 
L 153.177275 66.57533 
L 159.299532 69.071721 
L 165.421789 69.477933 
L 171.544046 69.553554 
L 177.666303 71.484913 
L 183.78856 70.864419 
L 189.910817 71.740197 
L 196.033074 71.16936 
L 202.155331 73.683256 
L 208.277588 74.638542 
L 214.399845 74.431384 
L 220.522102 75.58002 
" clip-path="url(#pa1078e4d20)" style="fill: none; stroke: #482878; stroke-opacity: 0.88; stroke-linecap: square"/>
   </g>
   <g id="line2d_22">
    <path d="M 42.976648 37.182614 
L 49.098905 50.405729 
L 55.221162 52.231863 
L 61.343419 52.554972 
L 67.465676 57.142163 
L 73.587933 60.38273 
L 79.71019 62.923906 
L 85.832447 63.749236 
L 91.954704 64.910334 
L 98.076961 65.453998 
L 104.199218 65.937576 
L 110.321475 68.228309 
L 116.443732 69.733709 
L 122.565989 70.834446 
L 128.688246 73.324863 
L 134.810504 72.452606 
L 140.932761 73.100151 
L 147.055018 75.758663 
L 153.177275 75.361168 
L 159.299532 74.312804 
L 165.421789 76.13642 
L 171.544046 77.565576 
L 177.666303 78.382655 
L 183.78856 79.028953 
L 189.910817 79.41713 
L 196.033074 80.595432 
L 202.155331 79.422213 
L 208.277588 81.257016 
L 214.399845 80.802867 
L 220.522102 82.054389 
" clip-path="url(#pa1078e4d20)" style="fill: none; stroke: #3e4989; stroke-opacity: 0.88; stroke-linecap: square"/>
   </g>
   <g id="line2d_23">
    <path d="M 42.976648 39.97085 
L 49.098905 51.063778 
L 55.221162 53.678431 
L 61.343419 57.930475 
L 67.465676 62.974097 
L 73.587933 63.941508 
L 79.71019 64.572103 
L 85.832447 66.817387 
L 91.954704 67.481727 
L 98.076961 69.550383 
L 104.199218 70.525599 
L 110.321475 71.909626 
L 116.443732 73.365196 
L 122.565989 75.182444 
L 128.688246 75.171309 
L 134.810504 76.739319 
L 140.932761 77.031911 
L 147.055018 75.617741 
L 153.177275 78.953702 
L 159.299532 79.986293 
L 165.421789 79.746675 
L 171.544046 81.568631 
L 177.666303 82.008339 
L 183.78856 82.739072 
L 189.910817 83.727807 
L 196.033074 84.601808 
L 202.155331 84.389872 
L 208.277588 85.500932 
L 214.399845 86.152427 
L 220.522102 86.727119 
" clip-path="url(#pa1078e4d20)" style="fill: none; stroke: #31688e; stroke-opacity: 0.88; stroke-linecap: square"/>
   </g>
   <g id="line2d_24">
    <path d="M 42.976648 42.493777 
L 49.098905 51.779917 
L 55.221162 57.848224 
L 61.343419 62.145654 
L 67.465676 64.01753 
L 73.587933 65.386822 
L 79.71019 65.327145 
L 85.832447 67.122919 
L 91.954704 69.428948 
L 98.076961 71.435611 
L 104.199218 72.631468 
L 110.321475 74.067997 
L 116.443732 73.797188 
L 122.565989 76.656849 
L 128.688246 76.798274 
L 134.810504 79.478634 
L 140.932761 80.564267 
L 147.055018 80.332236 
L 153.177275 82.749002 
L 159.299532 84.297676 
L 165.421789 84.581137 
L 171.544046 85.808735 
L 177.666303 86.978233 
L 183.78856 87.218404 
L 189.910817 88.206548 
L 196.033074 88.562892 
L 202.155331 89.509938 
L 208.277588 89.436368 
L 214.399845 90.605892 
L 220.522102 92.4424 
" clip-path="url(#pa1078e4d20)" style="fill: none; stroke: #26828e; stroke-opacity: 0.88; stroke-linecap: square"/>
   </g>
   <g id="line2d_25">
    <path d="M 42.976648 43.841767 
L 49.098905 52.550002 
L 55.221162 60.413776 
L 61.343419 64.207054 
L 67.465676 64.987067 
L 73.587933 67.710936 
L 79.71019 70.965802 
L 85.832447 72.728417 
L 91.954704 75.021977 
L 98.076961 74.642792 
L 104.199218 76.704144 
L 110.321475 78.443307 
L 116.443732 79.512963 
L 122.565989 79.71951 
L 128.688246 82.191423 
L 134.810504 82.435136 
L 140.932761 84.400478 
L 147.055018 85.979763 
L 153.177275 86.776538 
L 159.299532 86.64284 
L 165.421789 88.029426 
L 171.544046 89.085082 
L 177.666303 90.275741 
L 183.78856 91.091144 
L 189.910817 90.808314 
L 196.033074 91.89416 
L 202.155331 92.400167 
L 208.277588 92.355298 
L 214.399845 93.241255 
L 220.522102 93.644834 
" clip-path="url(#pa1078e4d20)" style="fill: none; stroke: #1f9e89; stroke-opacity: 0.88; stroke-linecap: square"/>
   </g>
   <g id="line2d_26">
    <path d="M 42.976648 44.943619 
L 49.098905 54.351816 
L 55.221162 61.649146 
L 61.343419 65.391456 
L 67.465676 65.053876 
L 73.587933 67.195635 
L 79.71019 70.292299 
L 85.832447 72.272863 
L 91.954704 75.68657 
L 98.076961 75.693559 
L 104.199218 78.332088 
L 110.321475 79.674189 
L 116.443732 82.401758 
L 122.565989 82.485344 
L 128.688246 83.825427 
L 134.810504 85.468049 
L 140.932761 86.149931 
L 147.055018 87.471451 
L 153.177275 88.910854 
L 159.299532 89.182952 
L 165.421789 90.283241 
L 171.544046 90.718221 
L 177.666303 91.341554 
L 183.78856 92.610193 
L 189.910817 92.780317 
L 196.033074 93.075288 
L 202.155331 93.682445 
L 208.277588 94.555317 
L 214.399845 94.695525 
L 220.522102 95.128059 
" clip-path="url(#pa1078e4d20)" style="fill: none; stroke: #35b779; stroke-opacity: 0.88; stroke-linecap: square"/>
   </g>
   <g id="line2d_27">
    <path d="M 42.976648 46.292237 
L 49.098905 57.177846 
L 55.221162 64.312522 
L 61.343419 65.212392 
L 67.465676 67.786408 
L 73.587933 71.189115 
L 79.71019 72.862802 
L 85.832447 75.586822 
L 91.954704 77.435202 
L 98.076961 79.95145 
L 104.199218 81.325364 
L 110.321475 83.413166 
L 116.443732 84.30019 
L 122.565989 86.075857 
L 128.688246 87.271112 
L 134.810504 88.843338 
L 140.932761 90.320453 
L 147.055018 90.863408 
L 153.177275 91.578772 
L 159.299532 92.775536 
L 165.421789 94.152653 
L 171.544046 93.871425 
L 177.666303 94.530418 
L 183.78856 95.391043 
L 189.910817 95.571957 
L 196.033074 96.149937 
L 202.155331 96.81943 
L 208.277588 96.940848 
L 214.399845 97.294118 
L 220.522102 97.472114 
" clip-path="url(#pa1078e4d20)" style="fill: none; stroke: #6ece58; stroke-opacity: 0.88; stroke-linecap: square"/>
   </g>
   <g id="line2d_28">
    <path d="M 42.976648 47.309225 
L 49.098905 59.045274 
L 55.221162 64.172692 
L 61.343419 66.710153 
L 67.465676 68.49549 
L 73.587933 72.548688 
L 79.71019 73.92379 
L 85.832447 76.946933 
L 91.954704 78.877644 
L 98.076961 81.48298 
L 104.199218 83.385557 
L 110.321475 85.475306 
L 116.443732 86.645043 
L 122.565989 88.031387 
L 128.688246 89.224162 
L 134.810504 91.066988 
L 140.932761 91.639598 
L 147.055018 92.913881 
L 153.177275 93.34113 
L 159.299532 94.613193 
L 165.421789 94.459777 
L 171.544046 95.385143 
L 177.666303 95.864512 
L 183.78856 96.194024 
L 189.910817 96.598105 
L 196.033074 96.478572 
L 202.155331 97.020618 
L 208.277588 97.289479 
L 214.399845 97.624656 
L 220.522102 97.987841 
" clip-path="url(#pa1078e4d20)" style="fill: none; stroke: #b5de2b; stroke-opacity: 0.88; stroke-linecap: square"/>
   </g>
   <g id="line2d_29">
    <path d="M 42.976648 48.347748 
L 49.098905 60.455871 
L 55.221162 65.177317 
L 61.343419 67.970721 
L 67.465676 72.046674 
L 73.587933 74.562537 
L 79.71019 76.986998 
L 85.832447 79.359991 
L 91.954704 81.759887 
L 98.076961 83.852071 
L 104.199218 86.000175 
L 110.321475 86.8884 
L 116.443732 88.760282 
L 122.565989 90.364326 
L 128.688246 90.806306 
L 134.810504 91.288358 
L 140.932761 92.934683 
L 147.055018 93.691149 
L 153.177275 94.210614 
L 159.299532 94.947519 
L 165.421789 95.29173 
L 171.544046 95.628995 
L 177.666303 96.283608 
L 183.78856 96.835751 
L 189.910817 96.975364 
L 196.033074 97.227468 
L 202.155331 97.576494 
L 208.277588 97.794211 
L 214.399845 97.812418 
L 220.522102 97.85048 
" clip-path="url(#pa1078e4d20)" style="fill: none; stroke: #fde725; stroke-opacity: 0.88; stroke-linecap: square"/>
   </g>
   <g id="line2d_30">
    <path d="M 42.976648 39.823978 
L 49.098905 52.974496 
L 55.221162 57.685441 
L 61.343419 60.143119 
L 67.465676 62.384846 
L 73.587933 64.661158 
L 79.71019 66.380125 
L 85.832447 68.443755 
L 91.954704 70.245393 
L 98.076961 71.563647 
L 104.199218 73.061557 
L 110.321475 74.420065 
L 116.443732 75.782459 
L 122.565989 77.152699 
L 128.688246 78.160512 
L 134.810504 78.877911 
L 140.932761 80.026671 
L 147.055018 80.981685 
L 153.177275 81.951948 
L 159.299532 82.647321 
L 165.421789 83.330298 
L 171.544046 84.085052 
L 177.666303 85.034285 
L 183.78856 85.610301 
L 189.910817 85.981717 
L 196.033074 86.347905 
L 202.155331 86.979085 
L 208.277588 87.301074 
L 214.399845 87.585236 
L 220.522102 88.348133 
" clip-path="url(#pa1078e4d20)" style="fill: none; stroke-dasharray: 3.145,1.36; stroke-dashoffset: 0; stroke: #0b8a8f; stroke-opacity: 0.82; stroke-width: 0.85"/>
   </g>
   <g id="patch_3">
    <path d="M 34.099375 101.95875 
L 34.099375 14.59875 
" style="fill: none; stroke: #344054; stroke-width: 0.65; stroke-linejoin: miter; stroke-linecap: square"/>
   </g>
   <g id="patch_4">
    <path d="M 34.099375 101.95875 
L 229.399375 101.95875 
" style="fill: none; stroke: #344054; stroke-width: 0.65; stroke-linejoin: miter; stroke-linecap: square"/>
   </g>
   <g id="PathCollection_1">
    <defs>
     <path id="m495dc4af41" d="M 0 1.414214 
C 0.375054 1.414214 0.734797 1.265203 1 1 
C 1.265203 0.734797 1.414214 0.375054 1.414214 0 
C 1.414214 -0.375054 1.265203 -0.734797 1 -1 
C 0.734797 -1.265203 0.375054 -1.414214 0 -1.414214 
C -0.375054 -1.414214 -0.734797 -1.265203 -1 -1 
C -1.265203 -0.734797 -1.414214 -0.375054 -1.414214 0 
C -1.414214 0.375054 -1.265203 0.734797 -1 1 
C -0.734797 1.265203 -0.375054 1.414214 0 1.414214 
z
" style="stroke: #ffffff; stroke-width: 0.3"/>
    </defs>
    <g clip-path="url(#pa1078e4d20)">
     <use xlink:href="#m495dc4af41" x="220.522102" y="64.594075" style="fill: #440154; stroke: #ffffff; stroke-width: 0.3"/>
    </g>
   </g>
   <g id="PathCollection_2">
    <defs>
     <path id="m2196d8535f" d="M 0 1.414214 
C 0.375054 1.414214 0.734797 1.265203 1 1 
C 1.265203 0.734797 1.414214 0.375054 1.414214 0 
C 1.414214 -0.375054 1.265203 -0.734797 1 -1 
C 0.734797 -1.265203 0.375054 -1.414214 0 -1.414214 
C -0.375054 -1.414214 -0.734797 -1.265203 -1 -1 
C -1.265203 -0.734797 -1.414214 -0.375054 -1.414214 0 
C -1.414214 0.375054 -1.265203 0.734797 -1 1 
C -0.734797 1.265203 -0.375054 1.414214 0 1.414214 
z
" style="stroke: #ffffff; stroke-width: 0.3"/>
    </defs>
    <g clip-path="url(#pa1078e4d20)">
     <use xlink:href="#m2196d8535f" x="220.522102" y="75.58002" style="fill: #482878; stroke: #ffffff; stroke-width: 0.3"/>
    </g>
   </g>
   <g id="PathCollection_3">
    <defs>
     <path id="mbd3a8b9bc9" d="M 0 1.414214 
C 0.375054 1.414214 0.734797 1.265203 1 1 
C 1.265203 0.734797 1.414214 0.375054 1.414214 0 
C 1.414214 -0.375054 1.265203 -0.734797 1 -1 
C 0.734797 -1.265203 0.375054 -1.414214 0 -1.414214 
C -0.375054 -1.414214 -0.734797 -1.265203 -1 -1 
C -1.265203 -0.734797 -1.414214 -0.375054 -1.414214 0 
C -1.414214 0.375054 -1.265203 0.734797 -1 1 
C -0.734797 1.265203 -0.375054 1.414214 0 1.414214 
z
" style="stroke: #ffffff; stroke-width: 0.3"/>
    </defs>
    <g clip-path="url(#pa1078e4d20)">
     <use xlink:href="#mbd3a8b9bc9" x="220.522102" y="82.054389" style="fill: #3e4989; stroke: #ffffff; stroke-width: 0.3"/>
    </g>
   </g>
   <g id="PathCollection_4">
    <defs>
     <path id="m29a7535901" d="M 0 1.414214 
C 0.375054 1.414214 0.734797 1.265203 1 1 
C 1.265203 0.734797 1.414214 0.375054 1.414214 0 
C 1.414214 -0.375054 1.265203 -0.734797 1 -1 
C 0.734797 -1.265203 0.375054 -1.414214 0 -1.414214 
C -0.375054 -1.414214 -0.734797 -1.265203 -1 -1 
C -1.265203 -0.734797 -1.414214 -0.375054 -1.414214 0 
C -1.414214 0.375054 -1.265203 0.734797 -1 1 
C -0.734797 1.265203 -0.375054 1.414214 0 1.414214 
z
" style="stroke: #ffffff; stroke-width: 0.3"/>
    </defs>
    <g clip-path="url(#pa1078e4d20)">
     <use xlink:href="#m29a7535901" x="220.522102" y="86.727119" style="fill: #31688e; stroke: #ffffff; stroke-width: 0.3"/>
    </g>
   </g>
   <g id="PathCollection_5">
    <defs>
     <path id="m159ae80d33" d="M 0 1.414214 
C 0.375054 1.414214 0.734797 1.265203 1 1 
C 1.265203 0.734797 1.414214 0.375054 1.414214 0 
C 1.414214 -0.375054 1.265203 -0.734797 1 -1 
C 0.734797 -1.265203 0.375054 -1.414214 0 -1.414214 
C -0.375054 -1.414214 -0.734797 -1.265203 -1 -1 
C -1.265203 -0.734797 -1.414214 -0.375054 -1.414214 0 
C -1.414214 0.375054 -1.265203 0.734797 -1 1 
C -0.734797 1.265203 -0.375054 1.414214 0 1.414214 
z
" style="stroke: #ffffff; stroke-width: 0.3"/>
    </defs>
    <g clip-path="url(#pa1078e4d20)">
     <use xlink:href="#m159ae80d33" x="220.522102" y="92.4424" style="fill: #26828e; stroke: #ffffff; stroke-width: 0.3"/>
    </g>
   </g>
   <g id="PathCollection_6">
    <defs>
     <path id="m0d89cb2a93" d="M 0 1.414214 
C 0.375054 1.414214 0.734797 1.265203 1 1 
C 1.265203 0.734797 1.414214 0.375054 1.414214 0 
C 1.414214 -0.375054 1.265203 -0.734797 1 -1 
C 0.734797 -1.265203 0.375054 -1.414214 0 -1.414214 
C -0.375054 -1.414214 -0.734797 -1.265203 -1 -1 
C -1.265203 -0.734797 -1.414214 -0.375054 -1.414214 0 
C -1.414214 0.375054 -1.265203 0.734797 -1 1 
C -0.734797 1.265203 -0.375054 1.414214 0 1.414214 
z
" style="stroke: #ffffff; stroke-width: 0.3"/>
    </defs>
    <g clip-path="url(#pa1078e4d20)">
     <use xlink:href="#m0d89cb2a93" x="220.522102" y="93.644834" style="fill: #1f9e89; stroke: #ffffff; stroke-width: 0.3"/>
    </g>
   </g>
   <g id="PathCollection_7">
    <defs>
     <path id="mfbd05b0954" d="M 0 1.414214 
C 0.375054 1.414214 0.734797 1.265203 1 1 
C 1.265203 0.734797 1.414214 0.375054 1.414214 0 
C 1.414214 -0.375054 1.265203 -0.734797 1 -1 
C 0.734797 -1.265203 0.375054 -1.414214 0 -1.414214 
C -0.375054 -1.414214 -0.734797 -1.265203 -1 -1 
C -1.265203 -0.734797 -1.414214 -0.375054 -1.414214 0 
C -1.414214 0.375054 -1.265203 0.734797 -1 1 
C -0.734797 1.265203 -0.375054 1.414214 0 1.414214 
z
" style="stroke: #ffffff; stroke-width: 0.3"/>
    </defs>
    <g clip-path="url(#pa1078e4d20)">
     <use xlink:href="#mfbd05b0954" x="220.522102" y="95.128059" style="fill: #35b779; stroke: #ffffff; stroke-width: 0.3"/>
    </g>
   </g>
   <g id="PathCollection_8">
    <defs>
     <path id="m1d9e52b326" d="M 0 1.414214 
C 0.375054 1.414214 0.734797 1.265203 1 1 
C 1.265203 0.734797 1.414214 0.375054 1.414214 0 
C 1.414214 -0.375054 1.265203 -0.734797 1 -1 
C 0.734797 -1.265203 0.375054 -1.414214 0 -1.414214 
C -0.375054 -1.414214 -0.734797 -1.265203 -1 -1 
C -1.265203 -0.734797 -1.414214 -0.375054 -1.414214 0 
C -1.414214 0.375054 -1.265203 0.734797 -1 1 
C -0.734797 1.265203 -0.375054 1.414214 0 1.414214 
z
" style="stroke: #ffffff; stroke-width: 0.3"/>
    </defs>
    <g clip-path="url(#pa1078e4d20)">
     <use xlink:href="#m1d9e52b326" x="220.522102" y="97.472114" style="fill: #6ece58; stroke: #ffffff; stroke-width: 0.3"/>
    </g>
   </g>
   <g id="PathCollection_9">
    <defs>
     <path id="m31ce28a91d" d="M 0 1.414214 
C 0.375054 1.414214 0.734797 1.265203 1 1 
C 1.265203 0.734797 1.414214 0.375054 1.414214 0 
C 1.414214 -0.375054 1.265203 -0.734797 1 -1 
C 0.734797 -1.265203 0.375054 -1.414214 0 -1.414214 
C -0.375054 -1.414214 -0.734797 -1.265203 -1 -1 
C -1.265203 -0.734797 -1.414214 -0.375054 -1.414214 0 
C -1.414214 0.375054 -1.265203 0.734797 -1 1 
C -0.734797 1.265203 -0.375054 1.414214 0 1.414214 
z
" style="stroke: #ffffff; stroke-width: 0.3"/>
    </defs>
    <g clip-path="url(#pa1078e4d20)">
     <use xlink:href="#m31ce28a91d" x="220.522102" y="97.987841" style="fill: #b5de2b; stroke: #ffffff; stroke-width: 0.3"/>
    </g>
   </g>
   <g id="PathCollection_10">
    <defs>
     <path id="m393d7e465c" d="M 0 1.414214 
C 0.375054 1.414214 0.734797 1.265203 1 1 
C 1.265203 0.734797 1.414214 0.375054 1.414214 0 
C 1.414214 -0.375054 1.265203 -0.734797 1 -1 
C 0.734797 -1.265203 0.375054 -1.414214 0 -1.414214 
C -0.375054 -1.414214 -0.734797 -1.265203 -1 -1 
C -1.265203 -0.734797 -1.414214 -0.375054 -1.414214 0 
C -1.414214 0.375054 -1.265203 0.734797 -1 1 
C -0.734797 1.265203 -0.375054 1.414214 0 1.414214 
z
" style="stroke: #ffffff; stroke-width: 0.3"/>
    </defs>
    <g clip-path="url(#pa1078e4d20)">
     <use xlink:href="#m393d7e465c" x="220.522102" y="97.85048" style="fill: #fde725; stroke: #ffffff; stroke-width: 0.3"/>
    </g>
   </g>
   <g id="text_16">
    <text style="font: 700 8px 'DejaVu Sans'; text-anchor: start" x="34.099375" y="8.59875" transform="rotate(-0 34.099375 8.59875)">(a) One synthetic curriculum, increasing sample budget</text>
   </g>
   <g id="legend_1">
    <g id="line2d_31">
     <path d="M 52.194063 22.457812 
L 55.794063 22.457812 
L 59.394063 22.457812 
" style="fill: none; stroke: #440154; stroke-opacity: 0.88; stroke-linecap: square"/>
    </g>
    <g id="text_17">
     <text style="font: 6px 'DejaVu Sans'; text-anchor: start" x="64.194063" y="24.557812" transform="rotate(-0 64.194063 24.557812)">10%</text>
    </g>
    <g id="line2d_32">
     <path d="M 80.83 22.457812 
L 84.43 22.457812 
L 88.03 22.457812 
" style="fill: none; stroke: #26828e; stroke-opacity: 0.88; stroke-linecap: square"/>
    </g>
    <g id="text_18">
     <text style="font: 6px 'DejaVu Sans'; text-anchor: start" x="92.83" y="24.557812" transform="rotate(-0 92.83 24.557812)">50%</text>
    </g>
    <g id="line2d_33">
     <path d="M 109.465938 22.457812 
L 113.065938 22.457812 
L 116.665938 22.457812 
" style="fill: none; stroke: #fde725; stroke-opacity: 0.88; stroke-linecap: square"/>
    </g>
    <g id="text_19">
     <text style="font: 6px 'DejaVu Sans'; text-anchor: start" x="121.465938" y="24.557812" transform="rotate(-0 121.465938 24.557812)">100%</text>
    </g>
    <g id="patch_5">
     <path d="M 141.919375 24.557812 
L 149.119375 24.557812 
L 149.119375 20.357812 
L 141.919375 20.357812 
z
" style="fill: #0b8a8f; fill-opacity: 0.11"/>
    </g>
    <g id="text_20">
     <!-- cross-size mean $\pm$ SEM -->
     <g transform="translate(153.919375 24.557812)">
      <text>
       <tspan style="font: 6px 'DejaVu Sans'" x="0 3.298828 5.765625 9.436523 12.5625 15.688477 17.853516 20.979492 22.646484 25.795898 29.487305 31.394531 37.239258 40.930664 44.607422 48.410156 50.317383 55.344727 57.251953 61.060547 64.851562" y="-0.4375">cross-size mean ± SEM</tspan>
      </text>
     </g>
    </g>
   </g>
  </g>
  <g id="axes_2">
   <g id="patch_6">
    <path d="M 34.099375 187.57155 
L 229.399375 187.57155 
L 229.399375 143.89155 
L 34.099375 143.89155 
z
" style="fill: #ffffff"/>
   </g>
   <g id="PolyCollection_2">
    <defs>
     <path id="mea7298a4cb" d="M 42.976648 -67.98967 
L 42.976648 -65.876433 
L 62.70392 -53.037446 
L 82.431193 -46.337012 
L 102.158466 -40.872829 
L 121.885739 -33.659352 
L 141.613011 -33.164434 
L 161.340284 -31.306653 
L 181.067557 -28.954932 
L 200.79483 -28.28058 
L 220.522102 -28.807268 
L 220.522102 -29.412233 
L 220.522102 -29.412233 
L 200.79483 -29.619831 
L 181.067557 -30.143516 
L 161.340284 -33.237056 
L 141.613011 -34.824821 
L 121.885739 -37.123166 
L 102.158466 -43.186338 
L 82.431193 -48.576948 
L 62.70392 -56.916532 
L 42.976648 -67.98967 
z
"/>
    </defs>
    <g clip-path="url(#pa65a6dd61b)">
     <use xlink:href="#mea7298a4cb" x="0" y="213.866675" style="fill: #7052a3; fill-opacity: 0.1"/>
    </g>
   </g>
   <g id="matplotlib.axis_3">
    <g id="xtick_8">
     <g id="line2d_34">
      <g>
       <use xlink:href="#m9bd5863175" x="42.976648" y="187.57155" style="stroke: #000000; stroke-width: 0.8"/>
      </g>
     </g>
     <g id="text_21">
      <text style="font: 6.2px 'DejaVu Sans'; text-anchor: middle" x="42.976648" y="199.282581" transform="rotate(-0 42.976648 199.282581)">10</text>
     </g>
    </g>
    <g id="xtick_9">
     <g id="line2d_35">
      <g>
       <use xlink:href="#m9bd5863175" x="62.70392" y="187.57155" style="stroke: #000000; stroke-width: 0.8"/>
      </g>
     </g>
     <g id="text_22">
      <text style="font: 6.2px 'DejaVu Sans'; text-anchor: middle" x="62.70392" y="199.282581" transform="rotate(-0 62.70392 199.282581)">20</text>
     </g>
    </g>
    <g id="xtick_10">
     <g id="line2d_36">
      <g>
       <use xlink:href="#m9bd5863175" x="82.431193" y="187.57155" style="stroke: #000000; stroke-width: 0.8"/>
      </g>
     </g>
     <g id="text_23">
      <text style="font: 6.2px 'DejaVu Sans'; text-anchor: middle" x="82.431193" y="199.282581" transform="rotate(-0 82.431193 199.282581)">30</text>
     </g>
    </g>
    <g id="xtick_11">
     <g id="line2d_37">
      <g>
       <use xlink:href="#m9bd5863175" x="102.158466" y="187.57155" style="stroke: #000000; stroke-width: 0.8"/>
      </g>
     </g>
     <g id="text_24">
      <text style="font: 6.2px 'DejaVu Sans'; text-anchor: middle" x="102.158466" y="199.282581" transform="rotate(-0 102.158466 199.282581)">40</text>
     </g>
    </g>
    <g id="xtick_12">
     <g id="line2d_38">
      <g>
       <use xlink:href="#m9bd5863175" x="121.885739" y="187.57155" style="stroke: #000000; stroke-width: 0.8"/>
      </g>
     </g>
     <g id="text_25">
      <text style="font: 6.2px 'DejaVu Sans'; text-anchor: middle" x="121.885739" y="199.282581" transform="rotate(-0 121.885739 199.282581)">50</text>
     </g>
    </g>
    <g id="xtick_13">
     <g id="line2d_39">
      <g>
       <use xlink:href="#m9bd5863175" x="141.613011" y="187.57155" style="stroke: #000000; stroke-width: 0.8"/>
      </g>
     </g>
     <g id="text_26">
      <text style="font: 6.2px 'DejaVu Sans'; text-anchor: middle" x="141.613011" y="199.282581" transform="rotate(-0 141.613011 199.282581)">60</text>
     </g>
    </g>
    <g id="xtick_14">
     <g id="line2d_40">
      <g>
       <use xlink:href="#m9bd5863175" x="161.340284" y="187.57155" style="stroke: #000000; stroke-width: 0.8"/>
      </g>
     </g>
     <g id="text_27">
      <text style="font: 6.2px 'DejaVu Sans'; text-anchor: middle" x="161.340284" y="199.282581" transform="rotate(-0 161.340284 199.282581)">70</text>
     </g>
    </g>
    <g id="xtick_15">
     <g id="line2d_41">
      <g>
       <use xlink:href="#m9bd5863175" x="181.067557" y="187.57155" style="stroke: #000000; stroke-width: 0.8"/>
      </g>
     </g>
     <g id="text_28">
      <text style="font: 6.2px 'DejaVu Sans'; text-anchor: middle" x="181.067557" y="199.282581" transform="rotate(-0 181.067557 199.282581)">80</text>
     </g>
    </g>
    <g id="xtick_16">
     <g id="line2d_42">
      <g>
       <use xlink:href="#m9bd5863175" x="200.79483" y="187.57155" style="stroke: #000000; stroke-width: 0.8"/>
      </g>
     </g>
     <g id="text_29">
      <text style="font: 6.2px 'DejaVu Sans'; text-anchor: middle" x="200.79483" y="199.282581" transform="rotate(-0 200.79483 199.282581)">90</text>
     </g>
    </g>
    <g id="xtick_17">
     <g id="line2d_43">
      <g>
       <use xlink:href="#m9bd5863175" x="220.522102" y="187.57155" style="stroke: #000000; stroke-width: 0.8"/>
      </g>
     </g>
     <g id="text_30">
      <text style="font: 6.2px 'DejaVu Sans'; text-anchor: middle" x="220.522102" y="199.282581" transform="rotate(-0 220.522102 199.282581)">100</text>
     </g>
    </g>
    <g id="text_31">
     <text style="font: 7px 'DejaVu Sans'; text-anchor: middle" x="131.749375" y="209.890894" transform="rotate(-0 131.749375 209.890894)">Pattern Bank size (% of 60k windows)</text>
    </g>
   </g>
   <g id="matplotlib.axis_4">
    <g id="ytick_7">
     <g id="line2d_44">
      <path d="M 34.099375 170.676935 
L 229.399375 170.676935 
" clip-path="url(#pa65a6dd61b)" style="fill: none; stroke: #dde3e8; stroke-width: 0.55; stroke-linecap: square"/>
     </g>
     <g id="line2d_45">
      <g>
       <use xlink:href="#m7f37e72a4b" x="34.099375" y="170.676935" style="stroke: #000000; stroke-width: 0.8"/>
      </g>
     </g>
     <g id="text_32">
      <text style="font: 6.2px 'DejaVu Sans'; text-anchor: end" x="27.099375" y="173.032451" transform="rotate(-0 27.099375 173.032451)">0.04</text>
     </g>
    </g>
    <g id="ytick_8">
     <g id="line2d_46">
      <path d="M 34.099375 153.376841 
L 229.399375 153.376841 
" clip-path="url(#pa65a6dd61b)" style="fill: none; stroke: #dde3e8; stroke-width: 0.55; stroke-linecap: square"/>
     </g>
     <g id="line2d_47">
      <g>
       <use xlink:href="#m7f37e72a4b" x="34.099375" y="153.376841" style="stroke: #000000; stroke-width: 0.8"/>
      </g>
     </g>
     <g id="text_33">
      <text style="font: 6.2px 'DejaVu Sans'; text-anchor: end" x="27.099375" y="155.732357" transform="rotate(-0 27.099375 155.732357)">0.06</text>
     </g>
    </g>
    <g id="text_34">
     <text style="font: 7px 'DejaVu Sans'; text-anchor: middle" x="7.838906" y="165.73155" transform="rotate(-90 7.838906 165.73155)">Best MSE</text>
    </g>
   </g>
   <g id="line2d_48">
    <path d="M 42.976648 146.933623 
L 62.70392 158.889686 
L 82.431193 166.409695 
L 102.158466 171.837092 
L 121.885739 178.475416 
L 141.613011 179.872048 
L 161.340284 181.59482 
L 181.067557 184.317451 
L 200.79483 184.91647 
L 220.522102 184.756925 
" clip-path="url(#pa65a6dd61b)" style="fill: none; stroke: #7052a3; stroke-width: 1.35; stroke-linecap: square"/>
    <defs>
     <path id="m3aee4bd077" d="M 0 1.6 
C 0.424325 1.6 0.831328 1.431414 1.131371 1.131371 
C 1.431414 0.831328 1.6 0.424325 1.6 0 
C 1.6 -0.424325 1.431414 -0.831328 1.131371 -1.131371 
C 0.831328 -1.431414 0.424325 -1.6 0 -1.6 
C -0.424325 -1.6 -0.831328 -1.431414 -1.131371 -1.131371 
C -1.431414 -0.831328 -1.6 -0.424325 -1.6 0 
C -1.6 0.424325 -1.431414 0.831328 -1.131371 1.131371 
C -0.831328 1.431414 -0.424325 1.6 0 1.6 
z
" style="stroke: #7052a3"/>
    </defs>
    <g clip-path="url(#pa65a6dd61b)">
     <use xlink:href="#m3aee4bd077" x="42.976648" y="146.933623" style="fill: #7052a3; stroke: #7052a3"/>
     <use xlink:href="#m3aee4bd077" x="62.70392" y="158.889686" style="fill: #7052a3; stroke: #7052a3"/>
     <use xlink:href="#m3aee4bd077" x="82.431193" y="166.409695" style="fill: #7052a3; stroke: #7052a3"/>
     <use xlink:href="#m3aee4bd077" x="102.158466" y="171.837092" style="fill: #7052a3; stroke: #7052a3"/>
     <use xlink:href="#m3aee4bd077" x="121.885739" y="178.475416" style="fill: #7052a3; stroke: #7052a3"/>
     <use xlink:href="#m3aee4bd077" x="141.613011" y="179.872048" style="fill: #7052a3; stroke: #7052a3"/>
     <use xlink:href="#m3aee4bd077" x="161.340284" y="181.59482" style="fill: #7052a3; stroke: #7052a3"/>
     <use xlink:href="#m3aee4bd077" x="181.067557" y="184.317451" style="fill: #7052a3; stroke: #7052a3"/>
     <use xlink:href="#m3aee4bd077" x="200.79483" y="184.91647" style="fill: #7052a3; stroke: #7052a3"/>
     <use xlink:href="#m3aee4bd077" x="220.522102" y="184.756925" style="fill: #7052a3; stroke: #7052a3"/>
    </g>
   </g>
   <g id="patch_7">
    <path d="M 34.099375 187.57155 
L 34.099375 143.89155 
" style="fill: none; stroke: #344054; stroke-width: 0.65; stroke-linejoin: miter; stroke-linecap: square"/>
   </g>
   <g id="patch_8">
    <path d="M 34.099375 187.57155 
L 229.399375 187.57155 
" style="fill: none; stroke: #344054; stroke-width: 0.65; stroke-linejoin: miter; stroke-linecap: square"/>
   </g>
   <g id="text_35">
    <text style="fill: #667085; font: 5.5px 'DejaVu Sans'; text-anchor: start" x="45.976648" y="141.933623" transform="rotate(-0 45.976648 141.933623)">6k windows</text>
   </g>
   <g id="text_36">
    <text style="fill: #667085; font: 5.5px 'DejaVu Sans'; text-anchor: end" x="217.522102" y="179.756925" transform="rotate(-0 217.522102 179.756925)">60k windows</text>
   </g>
   <g id="text_37">
    <text style="font: 700 8px 'DejaVu Sans'; text-anchor: start" x="34.099375" y="137.89155" transform="rotate(-0 34.099375 137.89155)">(b) Endpoint optimization</text>
   </g>
  </g>
 </g>
 <defs>
  <clipPath id="pa1078e4d20">
   <rect x="34.099375" y="14.59875" width="195.3" height="87.36"/>
  </clipPath>
  <clipPath id="pa65a6dd61b">
   <rect x="34.099375" y="143.89155" width="195.3" height="43.68"/>
  </clipPath>
 </defs>
</svg>
