<?xml version="1.0" encoding="utf-8" standalone="no"?>
<!DOCTYPE svg PUBLIC "-//W3C//DTD SVG 1.1//EN"
  "http://www.w3.org/Graphics/SVG/1.1/DTD/svg11.dtd">
<svg xmlns:xlink="http://www.w3.org/1999/xlink" width="252pt" height="220.248pt" viewBox="0 0 252 220.248" xmlns="http://www.w3.org/2000/svg" version="1.1">
 <metadata>
  <rdf:RDF xmlns:dc="http://purl.org/dc/elements/1.1/" xmlns:cc="http://creativecommons.org/ns#" xmlns:rdf="http://www.w3.org/1999/02/22-rdf-syntax-ns#">
   <cc:Work>
    <dc:type rdf:resource="http://purl.org/dc/dcmitype/StillImage"/>
    <dc:date>2026-07-15T04:10:54.109569</dc:date>
    <dc:format>image/svg+xml</dc:format>
    <dc:creator>
     <cc:Agent>
      <dc:title>Matplotlib v3.9.4, https://matplotlib.org/</dc:title>
     </cc:Agent>
    </dc:creator>
   </cc:Work>
  </rdf:RDF>
 </metadata>
 <defs>
  <style type="text/css">*{stroke-linejoin: round; stroke-linecap: butt}</style>
 </defs>
 <g id="figure_1">
  <g id="patch_1">
   <path d="M 0 220.248 
L 252 220.248 
L 252 0 
L 0 0 
z
" style="fill: #ffffff"/>
  </g>
  <g id="axes_1">
   <g id="patch_2">
    <path d="M 9.68184 107.756712 
L 116.36856 107.756712 
Q 120.81384 107.756712 120.81384 103.882968 
L 120.81384 28.129752 
Q 120.81384 24.256008 116.36856 24.256008 
L 9.68184 24.256008 
Q 5.23656 24.256008 5.23656 28.129752 
L 5.23656 103.882968 
Q 5.23656 107.756712 9.68184 107.756712 
z
" clip-path="url(#p6fc27910ad)" style="fill: #0b8a8f; fill-opacity: 0.055; stroke: #0b8a8f; stroke-width: 1.05; stroke-linejoin: miter"/>
   </g>
   <g id="patch_3">
    <path d="M 71.6688 53.09388 
L 79.0776 53.09388 
L 79.0776 46.63764 
L 71.6688 46.63764 
z
" clip-path="url(#p6fc27910ad)" style="fill: #0b8a8f; fill-opacity: 0.75; stroke: #ffffff; stroke-width: 0.3; stroke-linejoin: miter"/>
   </g>
   <g id="patch_4">
    <path d="M 79.0776 53.09388 
L 86.4864 53.09388 
L 86.4864 46.63764 
L 79.0776 46.63764 
z
" clip-path="url(#p6fc27910ad)" style="fill: #0b8a8f; fill-opacity: 0.6; stroke: #ffffff; stroke-width: 0.3; stroke-linejoin: miter"/>
   </g>
   <g id="patch_5">
    <path d="M 86.4864 53.09388 
L 93.8952 53.09388 
L 93.8952 46.63764 
L 86.4864 46.63764 
z
" clip-path="url(#p6fc27910ad)" style="fill: #0b8a8f; fill-opacity: 0.45; stroke: #ffffff; stroke-width: 0.3; stroke-linejoin: miter"/>
   </g>
   <g id="patch_6">
    <path d="M 93.8952 53.09388 
L 101.304 53.09388 
L 101.304 46.63764 
L 93.8952 46.63764 
z
" clip-path="url(#p6fc27910ad)" style="fill: #0b8a8f; fill-opacity: 0.3; stroke: #ffffff; stroke-width: 0.3; stroke-linejoin: miter"/>
   </g>
   <g id="patch_7">
    <path d="M 71.6688 59.55012 
L 79.0776 59.55012 
L 79.0776 53.09388 
L 71.6688 53.09388 
z
" clip-path="url(#p6fc27910ad)" style="fill: #0b8a8f; fill-opacity: 0.6; stroke: #ffffff; stroke-width: 0.3; stroke-linejoin: miter"/>
   </g>
   <g id="patch_8">
    <path d="M 79.0776 59.55012 
L 86.4864 59.55012 
L 86.4864 53.09388 
L 79.0776 53.09388 
z
" clip-path="url(#p6fc27910ad)" style="fill: #0b8a8f; fill-opacity: 0.75; stroke: #ffffff; stroke-width: 0.3; stroke-linejoin: miter"/>
   </g>
   <g id="patch_9">
    <path d="M 86.4864 59.55012 
L 93.8952 59.55012 
L 93.8952 53.09388 
L 86.4864 53.09388 
z
" clip-path="url(#p6fc27910ad)" style="fill: #0b8a8f; fill-opacity: 0.6; stroke: #ffffff; stroke-width: 0.3; stroke-linejoin: miter"/>
   </g>
   <g id="patch_10">
    <path d="M 93.8952 59.55012 
L 101.304 59.55012 
L 101.304 53.09388 
L 93.8952 53.09388 
z
" clip-path="url(#p6fc27910ad)" style="fill: #0b8a8f; fill-opacity: 0.45; stroke: #ffffff; stroke-width: 0.3; stroke-linejoin: miter"/>
   </g>
   <g id="patch_11">
    <path d="M 71.6688 66.00636 
L 79.0776 66.00636 
L 79.0776 59.55012 
L 71.6688 59.55012 
z
" clip-path="url(#p6fc27910ad)" style="fill: #0b8a8f; fill-opacity: 0.45; stroke: #ffffff; stroke-width: 0.3; stroke-linejoin: miter"/>
   </g>
   <g id="patch_12">
    <path d="M 79.0776 66.00636 
L 86.4864 66.00636 
L 86.4864 59.55012 
L 79.0776 59.55012 
z
" clip-path="url(#p6fc27910ad)" style="fill: #0b8a8f; fill-opacity: 0.6; stroke: #ffffff; stroke-width: 0.3; stroke-linejoin: miter"/>
   </g>
   <g id="patch_13">
    <path d="M 86.4864 66.00636 
L 93.8952 66.00636 
L 93.8952 59.55012 
L 86.4864 59.55012 
z
" clip-path="url(#p6fc27910ad)" style="fill: #0b8a8f; fill-opacity: 0.75; stroke: #ffffff; stroke-width: 0.3; stroke-linejoin: miter"/>
   </g>
   <g id="patch_14">
    <path d="M 93.8952 66.00636 
L 101.304 66.00636 
L 101.304 59.55012 
L 93.8952 59.55012 
z
" clip-path="url(#p6fc27910ad)" style="fill: #0b8a8f; fill-opacity: 0.6; stroke: #ffffff; stroke-width: 0.3; stroke-linejoin: miter"/>
   </g>
   <g id="patch_15">
    <path d="M 71.6688 72.4626 
L 79.0776 72.4626 
L 79.0776 66.00636 
L 71.6688 66.00636 
z
" clip-path="url(#p6fc27910ad)" style="fill: #0b8a8f; fill-opacity: 0.3; stroke: #ffffff; stroke-width: 0.3; stroke-linejoin: miter"/>
   </g>
   <g id="patch_16">
    <path d="M 79.0776 72.4626 
L 86.4864 72.4626 
L 86.4864 66.00636 
L 79.0776 66.00636 
z
" clip-path="url(#p6fc27910ad)" style="fill: #0b8a8f; fill-opacity: 0.45; stroke: #ffffff; stroke-width: 0.3; stroke-linejoin: miter"/>
   </g>
   <g id="patch_17">
    <path d="M 86.4864 72.4626 
L 93.8952 72.4626 
L 93.8952 66.00636 
L 86.4864 66.00636 
z
" clip-path="url(#p6fc27910ad)" style="fill: #0b8a8f; fill-opacity: 0.6; stroke: #ffffff; stroke-width: 0.3; stroke-linejoin: miter"/>
   </g>
   <g id="patch_18">
    <path d="M 93.8952 72.4626 
L 101.304 72.4626 
L 101.304 66.00636 
L 93.8952 66.00636 
z
" clip-path="url(#p6fc27910ad)" style="fill: #0b8a8f; fill-opacity: 0.75; stroke: #ffffff; stroke-width: 0.3; stroke-linejoin: miter"/>
   </g>
   <g id="patch_19">
    <path d="M 135.63144 107.756712 
L 242.31816 107.756712 
Q 246.76344 107.756712 246.76344 103.882968 
L 246.76344 28.129752 
Q 246.76344 24.256008 242.31816 24.256008 
L 135.63144 24.256008 
Q 131.18616 24.256008 131.18616 28.129752 
L 131.18616 103.882968 
Q 131.18616 107.756712 135.63144 107.756712 
z
" clip-path="url(#p6fc27910ad)" style="fill: #e45b5b; fill-opacity: 0.055; stroke: #e45b5b; stroke-width: 1.05; stroke-linejoin: miter"/>
   </g>
   <g id="patch_20">
    <path d="M 197.6184 53.09388 
L 205.0272 53.09388 
L 205.0272 46.63764 
L 197.6184 46.63764 
z
" clip-path="url(#p6fc27910ad)" style="fill: #e45b5b; fill-opacity: 0.75; stroke: #ffffff; stroke-width: 0.3; stroke-linejoin: miter"/>
   </g>
   <g id="patch_21">
    <path d="M 205.0272 53.09388 
L 212.436 53.09388 
L 212.436 46.63764 
L 205.0272 46.63764 
z
" clip-path="url(#p6fc27910ad)" style="fill: #e45b5b; fill-opacity: 0.3; stroke: #ffffff; stroke-width: 0.3; stroke-linejoin: miter"/>
   </g>
   <g id="patch_22">
    <path d="M 212.436 53.09388 
L 219.8448 53.09388 
L 219.8448 46.63764 
L 212.436 46.63764 
z
" clip-path="url(#p6fc27910ad)" style="fill: #e45b5b; fill-opacity: 0.3; stroke: #ffffff; stroke-width: 0.3; stroke-linejoin: miter"/>
   </g>
   <g id="patch_23">
    <path d="M 219.8448 53.09388 
L 227.2536 53.09388 
L 227.2536 46.63764 
L 219.8448 46.63764 
z
" clip-path="url(#p6fc27910ad)" style="fill: #e45b5b; fill-opacity: 0.75; stroke: #ffffff; stroke-width: 0.3; stroke-linejoin: miter"/>
   </g>
   <g id="patch_24">
    <path d="M 197.6184 59.55012 
L 205.0272 59.55012 
L 205.0272 53.09388 
L 197.6184 53.09388 
z
" clip-path="url(#p6fc27910ad)" style="fill: #e45b5b; fill-opacity: 0.3; stroke: #ffffff; stroke-width: 0.3; stroke-linejoin: miter"/>
   </g>
   <g id="patch_25">
    <path d="M 205.0272 59.55012 
L 212.436 59.55012 
L 212.436 53.09388 
L 205.0272 53.09388 
z
" clip-path="url(#p6fc27910ad)" style="fill: #e45b5b; fill-opacity: 0.75; stroke: #ffffff; stroke-width: 0.3; stroke-linejoin: miter"/>
   </g>
   <g id="patch_26">
    <path d="M 212.436 59.55012 
L 219.8448 59.55012 
L 219.8448 53.09388 
L 212.436 53.09388 
z
" clip-path="url(#p6fc27910ad)" style="fill: #e45b5b; fill-opacity: 0.3; stroke: #ffffff; stroke-width: 0.3; stroke-linejoin: miter"/>
   </g>
   <g id="patch_27">
    <path d="M 219.8448 59.55012 
L 227.2536 59.55012 
L 227.2536 53.09388 
L 219.8448 53.09388 
z
" clip-path="url(#p6fc27910ad)" style="fill: #e45b5b; fill-opacity: 0.3; stroke: #ffffff; stroke-width: 0.3; stroke-linejoin: miter"/>
   </g>
   <g id="patch_28">
    <path d="M 197.6184 66.00636 
L 205.0272 66.00636 
L 205.0272 59.55012 
L 197.6184 59.55012 
z
" clip-path="url(#p6fc27910ad)" style="fill: #e45b5b; fill-opacity: 0.3; stroke: #ffffff; stroke-width: 0.3; stroke-linejoin: miter"/>
   </g>
   <g id="patch_29">
    <path d="M 205.0272 66.00636 
L 212.436 66.00636 
L 212.436 59.55012 
L 205.0272 59.55012 
z
" clip-path="url(#p6fc27910ad)" style="fill: #e45b5b; fill-opacity: 0.3; stroke: #ffffff; stroke-width: 0.3; stroke-linejoin: miter"/>
   </g>
   <g id="patch_30">
    <path d="M 212.436 66.00636 
L 219.8448 66.00636 
L 219.8448 59.55012 
L 212.436 59.55012 
z
" clip-path="url(#p6fc27910ad)" style="fill: #e45b5b; fill-opacity: 0.75; stroke: #ffffff; stroke-width: 0.3; stroke-linejoin: miter"/>
   </g>
   <g id="patch_31">
    <path d="M 219.8448 66.00636 
L 227.2536 66.00636 
L 227.2536 59.55012 
L 219.8448 59.55012 
z
" clip-path="url(#p6fc27910ad)" style="fill: #e45b5b; fill-opacity: 0.3; stroke: #ffffff; stroke-width: 0.3; stroke-linejoin: miter"/>
   </g>
   <g id="patch_32">
    <path d="M 197.6184 72.4626 
L 205.0272 72.4626 
L 205.0272 66.00636 
L 197.6184 66.00636 
z
" clip-path="url(#p6fc27910ad)" style="fill: #e45b5b; fill-opacity: 0.75; stroke: #ffffff; stroke-width: 0.3; stroke-linejoin: miter"/>
   </g>
   <g id="patch_33">
    <path d="M 205.0272 72.4626 
L 212.436 72.4626 
L 212.436 66.00636 
L 205.0272 66.00636 
z
" clip-path="url(#p6fc27910ad)" style="fill: #e45b5b; fill-opacity: 0.3; stroke: #ffffff; stroke-width: 0.3; stroke-linejoin: miter"/>
   </g>
   <g id="patch_34">
    <path d="M 212.436 72.4626 
L 219.8448 72.4626 
L 219.8448 66.00636 
L 212.436 66.00636 
z
" clip-path="url(#p6fc27910ad)" style="fill: #e45b5b; fill-opacity: 0.3; stroke: #ffffff; stroke-width: 0.3; stroke-linejoin: miter"/>
   </g>
   <g id="patch_35">
    <path d="M 219.8448 72.4626 
L 227.2536 72.4626 
L 227.2536 66.00636 
L 219.8448 66.00636 
z
" clip-path="url(#p6fc27910ad)" style="fill: #e45b5b; fill-opacity: 0.75; stroke: #ffffff; stroke-width: 0.3; stroke-linejoin: miter"/>
   </g>
   <g id="patch_36">
    <path d="M 9.68184 178.775352 
L 116.36856 178.775352 
Q 120.81384 178.775352 120.81384 174.901608 
L 120.81384 131.429592 
Q 120.81384 127.555848 116.36856 127.555848 
L 9.68184 127.555848 
Q 5.23656 127.555848 5.23656 131.429592 
L 5.23656 174.901608 
Q 5.23656 178.775352 9.68184 178.775352 
z
" clip-path="url(#p6fc27910ad)" style="fill: #7052a3; fill-opacity: 0.055; stroke: #7052a3; stroke-width: 1.05; stroke-linejoin: miter"/>
   </g>
   <g id="patch_37">
    <path d="M 135.63144 178.775352 
L 242.31816 178.775352 
Q 246.76344 178.775352 246.76344 174.901608 
L 246.76344 131.429592 
Q 246.76344 127.555848 242.31816 127.555848 
L 135.63144 127.555848 
Q 131.18616 127.555848 131.18616 131.429592 
L 131.18616 174.901608 
Q 131.18616 178.775352 135.63144 178.775352 
z
" clip-path="url(#p6fc27910ad)" style="fill: #d99a00; fill-opacity: 0.055; stroke: #d99a00; stroke-width: 1.05; stroke-linejoin: miter"/>
   </g>
   <g id="line2d_1">
    <path d="M 13.6332 49.86576 
L 14.471932 49.509413 
L 15.310664 49.158069 
L 16.149396 48.816659 
L 16.988128 48.489976 
L 17.82686 48.182606 
L 18.665592 47.898864 
L 19.504325 47.642733 
L 20.343057 47.417809 
L 21.181789 47.227248 
L 22.020521 47.073726 
L 22.859253 46.959398 
L 23.697985 46.885869 
L 24.536717 46.854171 
L 25.375449 46.864749 
L 26.214181 46.917455 
L 27.052913 47.011549 
L 27.891645 47.14571 
L 28.730377 47.318054 
L 29.569109 47.526162 
L 30.407842 47.767113 
L 31.246574 48.037525 
L 32.085306 48.3336 
L 32.924038 48.651185 
L 33.76277 48.985819 
L 34.601502 49.332805 
L 35.440234 49.687273 
L 36.278966 50.044247 
L 37.117698 50.398715 
L 37.95643 50.745701 
L 38.795162 51.080335 
L 39.633894 51.39792 
L 40.472626 51.693995 
L 41.311358 51.964407 
L 42.150091 52.205358 
L 42.988823 52.413466 
L 43.827555 52.58581 
L 44.666287 52.719971 
L 45.505019 52.814065 
L 46.343751 52.866771 
L 47.182483 52.877349 
L 48.021215 52.845651 
L 48.859947 52.772122 
L 49.698679 52.657794 
L 50.537411 52.504272 
L 51.376143 52.313711 
L 52.214875 52.088787 
L 53.053608 51.832656 
L 53.89234 51.548914 
L 54.731072 51.241544 
L 55.569804 50.914861 
L 56.408536 50.573451 
L 57.247268 50.222107 
L 58.086 49.86576 
" clip-path="url(#p6fc27910ad)" style="fill: none; stroke: #0b8a8f; stroke-width: 0.75; stroke-linecap: square"/>
   </g>
   <g id="line2d_2">
    <path d="M 13.6332 61.979397 
L 14.471932 61.604839 
L 15.310664 61.270153 
L 16.149396 60.982676 
L 16.988128 60.748709 
L 17.82686 60.57338 
L 18.665592 60.460532 
L 19.504325 60.41264 
L 20.343057 60.430753 
L 21.181789 60.514473 
L 22.020521 60.661967 
L 22.859253 60.87 
L 23.697985 61.134013 
L 24.536717 61.448218 
L 25.375449 61.805729 
L 26.214181 62.198709 
L 27.052913 62.618544 
L 27.891645 63.056031 
L 28.730377 63.50158 
L 29.569109 63.945427 
L 30.407842 64.377841 
L 31.246574 64.789344 
L 32.085306 65.170916 
L 32.924038 65.514194 
L 33.76277 65.811652 
L 34.601502 66.056771 
L 35.440234 66.244177 
L 36.278966 66.369764 
L 37.117698 66.430777 
L 37.95643 66.42588 
L 38.795162 66.35518 
L 39.633894 66.220226 
L 40.472626 66.023977 
L 41.311358 65.770735 
L 42.150091 65.466051 
L 42.988823 65.116602 
L 43.827555 64.730049 
L 44.666287 64.314865 
L 45.505019 63.880151 
L 46.343751 63.435435 
L 47.182483 62.990465 
L 48.021215 62.554995 
L 48.859947 62.138571 
L 49.698679 61.75032 
L 50.537411 61.398752 
L 51.376143 61.091574 
L 52.214875 60.835518 
L 53.053608 60.636199 
L 53.89234 60.497984 
L 54.731072 60.423903 
L 55.569804 60.41558 
L 56.408536 60.473198 
L 57.247268 60.595493 
L 58.086 60.779785 
" clip-path="url(#p6fc27910ad)" style="fill: none; stroke: #0b8a8f; stroke-width: 0.75; stroke-linecap: square"/>
   </g>
   <g id="line2d_3">
    <path d="M 13.6332 74.44669 
L 14.471932 74.198713 
L 15.310664 74.038517 
L 16.149396 73.971154 
L 16.988128 73.998748 
L 17.82686 74.12043 
L 18.665592 74.332361 
L 19.504325 74.627858 
L 20.343057 74.997601 
L 21.181789 75.429928 
L 22.020521 75.911205 
L 22.859253 76.426253 
L 23.697985 76.958827 
L 24.536717 77.492131 
L 25.375449 78.009345 
L 26.214181 78.494157 
L 27.052913 78.931276 
L 27.891645 79.306916 
L 28.730377 79.60923 
L 29.569109 79.828683 
L 30.407842 79.958354 
L 31.246574 79.994154 
L 32.085306 79.934952 
L 32.924038 79.782617 
L 33.76277 79.541952 
L 34.601502 79.220549 
L 35.440234 78.828543 
L 36.278966 78.378299 
L 37.117698 77.884015 
L 37.95643 77.361283 
L 38.795162 76.826587 
L 39.633894 76.296791 
L 40.472626 75.788606 
L 41.311358 75.318057 
L 42.150091 74.899987 
L 42.988823 74.547579 
L 43.827555 74.27195 
L 44.666287 74.081791 
L 45.505019 73.983101 
L 46.343751 73.978991 
L 47.182483 74.069592 
L 48.021215 74.252046 
L 48.859947 74.520598 
L 49.698679 74.866779 
L 50.537411 75.279671 
L 51.376143 75.746251 
L 52.214875 76.251804 
L 53.053608 76.780386 
L 53.89234 77.315326 
L 54.731072 77.839751 
L 55.569804 78.337124 
L 56.408536 78.791756 
L 57.247268 79.189309 
L 58.086 79.517246 
" clip-path="url(#p6fc27910ad)" style="fill: none; stroke: #0b8a8f; stroke-width: 0.75; stroke-linecap: square"/>
   </g>
   <g id="line2d_4">
    <path d="M 19.8072 97.862059 
L 20.680291 97.758913 
L 21.553382 97.635874 
L 22.426473 97.490449 
L 23.299564 97.32016 
L 24.172655 97.122627 
L 25.045745 96.895675 
L 25.918836 96.637449 
L 26.791927 96.346538 
L 27.665018 96.022107 
L 28.538109 95.664024 
L 29.4112 95.272982 
L 30.284291 94.850609 
L 31.157382 94.399548 
L 32.030473 93.923514 
L 32.903564 93.427311 
L 33.776655 92.916809 
L 34.649745 92.398866 
L 35.522836 91.881214 
L 36.395927 91.372289 
L 37.269018 90.881019 
L 38.142109 90.416575 
L 39.0152 89.988094 
L 39.888291 89.604383 
L 40.761382 89.273622 
L 41.634473 89.003073 
L 42.507564 88.798817 
L 43.380655 88.665527 
L 44.253745 88.606287 
L 45.126836 88.62248 
L 45.999927 88.713726 
L 46.873018 88.877903 
L 47.746109 89.111229 
L 48.6192 89.408403 
L 49.492291 89.762806 
L 50.365382 90.166749 
L 51.238473 90.611747 
L 52.111564 91.088815 
L 52.984655 91.588767 
L 53.857745 92.102502 
L 54.730836 92.621275 
L 55.603927 93.136928 
L 56.477018 93.642087 
L 57.350109 94.130303 
L 58.2232 94.596159 
L 59.096291 95.035317 
L 59.969382 95.444525 
L 60.842473 95.821585 
L 61.715564 96.16528 
L 62.588655 96.475285 
L 63.461745 96.752049 
L 64.334836 96.99667 
L 65.207927 97.210765 
L 66.081018 97.396342 
L 66.954109 97.555675 
L 67.8272 97.6912 
L 68.700291 97.80541 
L 69.573382 97.900781 
L 70.446473 97.979702 
L 71.319564 98.044426 
L 72.192655 98.097036 
L 73.065745 98.139424 
L 73.938836 98.173278 
L 74.811927 98.200081 
L 75.685018 98.221119 
L 76.558109 98.23749 
L 77.4312 98.250121 
L 78.304291 98.259783 
L 79.177382 98.267112 
L 80.050473 98.272625 
L 80.923564 98.276736 
L 81.796655 98.279777 
L 82.669745 98.282007 
L 83.542836 98.283628 
L 84.415927 98.284798 
L 85.289018 98.285635 
L 86.162109 98.286229 
L 87.0352 98.286647 
L 87.908291 98.286938 
L 88.781382 98.28714 
L 89.654473 98.287278 
L 90.527564 98.287373 
L 91.400655 98.287436 
L 92.273745 98.287479 
L 93.146836 98.287507 
L 94.019927 98.287526 
L 94.893018 98.287538 
L 95.766109 98.287546 
L 96.6392 98.287551 
L 97.512291 98.287555 
L 98.385382 98.287557 
L 99.258473 98.287558 
L 100.131564 98.287559 
L 101.004655 98.287559 
L 101.877745 98.28756 
L 102.750836 98.28756 
L 103.623927 98.28756 
L 104.497018 98.28756 
L 105.370109 98.28756 
L 106.2432 98.28756 
" clip-path="url(#p6fc27910ad)" style="fill: none; stroke: #0b8a8f; stroke-width: 0.9; stroke-linecap: square"/>
   </g>
   <g id="line2d_5">
    <path d="M 19.8072 98.28756 
L 20.680291 98.28756 
L 21.553382 98.28756 
L 22.426473 98.28756 
L 23.299564 98.28756 
L 24.172655 98.287559 
L 25.045745 98.287559 
L 25.918836 98.287559 
L 26.791927 98.287558 
L 27.665018 98.287556 
L 28.538109 98.287554 
L 29.4112 98.287551 
L 30.284291 98.287546 
L 31.157382 98.287538 
L 32.030473 98.287526 
L 32.903564 98.287508 
L 33.776655 98.287482 
L 34.649745 98.287443 
L 35.522836 98.287386 
L 36.395927 98.287304 
L 37.269018 98.287184 
L 38.142109 98.287012 
L 39.0152 98.286768 
L 39.888291 98.286423 
L 40.761382 98.28594 
L 41.634473 98.285266 
L 42.507564 98.284336 
L 43.380655 98.283061 
L 44.253745 98.281325 
L 45.126836 98.278981 
L 45.999927 98.27584 
L 46.873018 98.27166 
L 47.746109 98.266143 
L 48.6192 98.258914 
L 49.492291 98.249516 
L 50.365382 98.237392 
L 51.238473 98.221872 
L 52.111564 98.202157 
L 52.984655 98.177308 
L 53.857745 98.146235 
L 54.730836 98.107684 
L 55.603927 98.060233 
L 56.477018 98.002292 
L 57.350109 97.932111 
L 58.2232 97.847791 
L 59.096291 97.747311 
L 59.969382 97.628558 
L 60.842473 97.489378 
L 61.715564 97.327628 
L 62.588655 97.141251 
L 63.461745 96.928353 
L 64.334836 96.687294 
L 65.207927 96.416784 
L 66.081018 96.115988 
L 66.954109 95.784625 
L 67.8272 95.423067 
L 68.700291 95.032428 
L 69.573382 94.614632 
L 70.446473 94.172473 
L 71.319564 93.709638 
L 72.192655 93.230703 
L 73.065745 92.741102 
L 73.938836 92.247049 
L 74.811927 91.755436 
L 75.685018 91.273686 
L 76.558109 90.809579 
L 77.4312 90.371053 
L 78.304291 89.965982 
L 79.177382 89.601945 
L 80.050473 89.285989 
L 80.923564 89.024407 
L 81.796655 88.822524 
L 82.669745 88.684526 
L 83.542836 88.613305 
L 84.415927 88.610367 
L 85.289018 88.675774 
L 86.162109 88.808143 
L 87.0352 89.004696 
L 87.908291 89.261355 
L 88.781382 89.572884 
L 89.654473 89.933067 
L 90.527564 90.334911 
L 91.400655 90.770876 
L 92.273745 91.233102 
L 93.146836 91.713649 
L 94.019927 92.204713 
L 94.893018 92.698835 
L 95.766109 93.189072 
L 96.6392 93.669146 
L 97.512291 94.133553 
L 98.385382 94.577641 
L 99.258473 94.997647 
L 100.131564 95.390702 
L 101.004655 95.754807 
L 101.877745 96.088782 
L 102.750836 96.392196 
L 103.623927 96.665276 
L 104.497018 96.908815 
L 105.370109 97.124067 
L 106.2432 97.312646 
" clip-path="url(#p6fc27910ad)" style="fill: none; stroke-dasharray: 3.33,1.44; stroke-dashoffset: 0; stroke: #7052a3; stroke-width: 0.9"/>
   </g>
   <g id="line2d_6">
    <path d="M 139.5828 49.86576 
L 140.421532 49.088836 
L 141.260264 48.364462 
L 142.098996 47.741633 
L 142.937728 47.262475 
L 143.77646 46.959398 
L 144.615192 46.852901 
L 145.453925 46.950187 
L 146.292657 47.244677 
L 147.131389 47.716451 
L 147.970121 48.3336 
L 148.808853 49.054382 
L 149.647585 49.830043 
L 150.486317 50.608119 
L 151.325049 51.335985 
L 152.163781 51.964407 
L 153.002513 52.450881 
L 153.841245 52.762503 
L 154.679977 52.878196 
L 155.518709 52.790133 
L 156.357442 52.504272 
L 157.196174 52.039948 
L 158.034906 51.428566 
L 158.873638 50.711479 
L 159.71237 49.93719 
L 160.551102 49.158069 
L 161.389834 48.426815 
L 162.228566 47.792888 
L 163.067298 47.299166 
L 163.90603 46.979043 
L 164.744762 46.854171 
L 165.583494 46.932997 
L 166.422226 47.210189 
L 167.260958 47.666998 
L 168.099691 48.272527 
L 168.938423 48.985819 
L 169.777155 49.758628 
L 170.615887 50.538683 
L 171.454619 51.273223 
L 172.293351 51.912566 
L 173.132083 52.413466 
L 173.970815 52.742046 
L 174.809547 52.876079 
L 175.648279 52.8065 
L 176.487011 52.538016 
L 177.325743 52.088787 
L 178.164475 51.489196 
L 179.003208 50.7798 
L 179.84194 50.00858 
L 180.680672 49.227699 
L 181.519404 48.489976 
L 182.358136 47.845308 
L 183.196868 47.337299 
L 184.0356 47.00031 
" clip-path="url(#p6fc27910ad)" style="fill: none; stroke: #e45b5b; stroke-width: 0.75; stroke-linecap: square"/>
   </g>
   <g id="line2d_7">
    <path d="M 139.5828 61.979397 
L 140.421532 61.245327 
L 141.260264 60.7166 
L 142.098996 60.443051 
L 142.937728 60.450465 
L 143.77646 60.738142 
L 144.615192 61.278967 
L 145.453925 62.021964 
L 146.292657 62.8971 
L 147.131389 63.821887 
L 147.970121 64.709157 
L 148.808853 65.47528 
L 149.647585 66.048042 
L 150.486317 66.373457 
L 151.325049 66.420853 
L 152.163781 66.185761 
L 153.002513 65.690341 
L 153.841245 64.98129 
L 154.679977 64.125441 
L 155.518709 63.203463 
L 156.357442 62.302259 
L 157.196174 61.506775 
L 158.034906 60.891989 
L 158.873638 60.515851 
L 159.71237 60.413813 
L 160.551102 60.595493 
L 161.389834 61.043767 
L 162.228566 61.716382 
L 163.067298 62.549939 
L 163.90603 63.465869 
L 164.744762 64.377841 
L 165.583494 59.819693 
L 166.422226 52.942062 
L 167.260958 60.899883 
L 168.099691 68.588485 
L 168.938423 66.308774 
L 169.777155 65.90922 
L 170.615887 65.275404 
L 171.454619 64.467068 
L 172.293351 63.560402 
L 173.132083 62.640866 
L 173.970815 61.795134 
L 174.809547 61.102921 
L 175.648279 60.629472 
L 176.487011 60.419415 
L 177.325743 60.492548 
L 178.164475 60.841978 
L 179.003208 61.434769 
L 179.84194 62.215046 
L 180.680672 63.109263 
L 181.519404 64.033132 
L 182.358136 64.899574 
L 183.196868 65.62692 
L 184.0356 66.146613 
" clip-path="url(#p6fc27910ad)" style="fill: none; stroke: #e45b5b; stroke-width: 0.75; stroke-linecap: square"/>
   </g>
   <g id="line2d_8">
    <path d="M 139.5828 74.44669 
L 140.421532 74.038517 
L 141.260264 73.998748 
L 142.098996 74.332361 
L 142.937728 74.997601 
L 143.77646 75.911205 
L 144.615192 76.958827 
L 145.453925 78.009345 
L 146.292657 78.931276 
L 147.131389 79.60923 
L 147.970121 79.958354 
L 148.808853 79.934952 
L 149.647585 79.541952 
L 150.486317 78.828543 
L 151.325049 77.884015 
L 152.163781 76.826587 
L 153.002513 75.788606 
L 153.841245 74.899987 
L 154.679977 74.27195 
L 155.518709 73.983101 
L 156.357442 74.069592 
L 157.196174 74.520598 
L 158.034906 75.279671 
L 158.873638 76.251804 
L 159.71237 77.315326 
L 160.551102 78.337124 
L 161.389834 79.189309 
L 162.228566 79.765223 
L 163.067298 79.992782 
L 163.90603 79.843506 
L 164.744762 79.336078 
L 165.583494 78.534008 
L 166.422226 77.537683 
L 167.260958 76.471805 
L 168.099691 75.469779 
L 168.938423 74.65702 
L 169.777155 74.135253 
L 170.615887 73.969782 
L 171.454619 74.181319 
L 172.293351 74.743387 
L 173.132083 75.585637 
L 173.970815 76.602653 
L 174.809547 77.667145 
L 175.648279 78.645879 
L 176.487011 79.416357 
L 177.325743 79.882145 
L 178.164475 79.984945 
L 179.003208 79.71189 
L 179.84194 79.097157 
L 180.680672 78.217685 
L 181.519404 77.18355 
L 182.358136 76.124185 
L 183.196868 75.17218 
L 184.0356 74.44669 
" clip-path="url(#p6fc27910ad)" style="fill: none; stroke: #e45b5b; stroke-width: 0.75; stroke-linecap: square"/>
   </g>
   <g id="line2d_9">
    <path d="M 145.7568 97.862059 
L 146.629891 97.795383 
L 147.502982 97.720233 
L 148.376073 97.635874 
L 149.249164 97.541566 
L 150.122255 97.436569 
L 150.995345 97.32016 
L 151.868436 97.191638 
L 152.741527 97.050344 
L 153.614618 96.895675 
L 154.487709 96.727097 
L 155.3608 96.544165 
L 156.233891 96.346538 
L 157.106982 96.133999 
L 157.980073 95.906469 
L 158.853164 95.664024 
L 159.726255 95.406911 
L 160.599345 95.135564 
L 161.472436 94.850609 
L 162.345527 94.552882 
L 163.218618 94.24343 
L 164.091709 93.923514 
L 164.9648 93.594612 
L 165.837891 93.258414 
L 166.710982 92.916809 
L 167.584073 92.571879 
L 168.457164 92.225879 
L 169.330255 91.881214 
L 170.203345 91.540417 
L 171.076436 91.20612 
L 171.949527 90.881019 
L 172.822618 90.567841 
L 173.695709 90.269307 
L 174.5688 89.988094 
L 175.441891 89.726791 
L 176.314982 89.487866 
L 177.188073 89.273622 
L 178.061164 89.086163 
L 178.934255 88.92736 
L 179.807345 88.798817 
L 180.680436 88.701847 
L 181.553527 88.637448 
L 182.426618 88.606287 
L 183.299709 88.608688 
L 184.1728 88.644625 
L 185.045891 88.713726 
L 185.918982 88.815275 
L 186.792073 88.948228 
L 187.665164 89.111229 
L 188.538255 89.302635 
L 189.411345 89.520538 
L 190.284436 89.762806 
L 191.157527 90.027107 
L 192.030618 90.310956 
L 192.903709 90.611747 
L 193.7768 90.926796 
L 194.649891 91.253377 
L 195.522982 91.588767 
L 196.396073 91.930275 
L 197.269164 92.275283 
L 198.142255 92.621275 
L 199.015345 92.965864 
L 199.888436 93.306819 
L 200.761527 93.642087 
L 201.634618 93.969803 
L 202.507709 94.288309 
L 203.3808 94.596159 
L 204.253891 94.89212 
L 205.126982 95.175177 
L 206.000073 95.444525 
L 206.873164 95.699565 
L 207.746255 95.93989 
L 208.619345 96.16528 
L 209.492436 96.37568 
L 210.365527 96.571191 
L 211.238618 96.752049 
L 212.111709 96.91861 
L 212.9848 97.071334 
L 213.857891 97.210765 
L 214.730982 97.337515 
L 215.604073 97.452251 
L 216.477164 97.555675 
L 217.350255 97.648517 
L 218.223345 97.731515 
L 219.096436 97.80541 
L 219.969527 97.870934 
L 220.842618 97.928801 
L 221.715709 97.979702 
L 222.5888 98.024296 
L 223.461891 98.063211 
L 224.334982 98.097036 
L 225.208073 98.126322 
L 226.081164 98.15158 
L 226.954255 98.173278 
L 227.827345 98.191847 
L 228.700436 98.207676 
L 229.573527 98.221119 
L 230.446618 98.232491 
L 231.319709 98.242075 
L 232.1928 98.250121 
" clip-path="url(#p6fc27910ad)" style="fill: none; stroke: #0b8a8f; stroke-width: 0.9; stroke-linecap: square"/>
   </g>
   <g id="line2d_10">
    <path d="M 145.7568 98.175062 
L 146.629891 98.156054 
L 147.502982 98.134261 
L 148.376073 98.109354 
L 149.249164 98.080976 
L 150.122255 98.048745 
L 150.995345 98.012253 
L 151.868436 97.971067 
L 152.741527 97.924732 
L 153.614618 97.872769 
L 154.487709 97.814683 
L 155.3608 97.749961 
L 156.233891 97.678081 
L 157.106982 97.598511 
L 157.980073 97.510718 
L 158.853164 97.414175 
L 159.726255 97.308364 
L 160.599345 97.192787 
L 161.472436 97.066971 
L 162.345527 96.930479 
L 163.218618 96.78292 
L 164.091709 96.623954 
L 164.9648 96.453308 
L 165.837891 96.27078 
L 166.710982 96.076255 
L 167.584073 95.869708 
L 168.457164 95.65122 
L 169.330255 95.420981 
L 170.203345 95.1793 
L 171.076436 94.926614 
L 171.949527 94.663491 
L 172.822618 94.390634 
L 173.695709 94.108884 
L 174.5688 93.819222 
L 175.441891 93.522766 
L 176.314982 93.220768 
L 177.188073 92.914611 
L 178.061164 92.605795 
L 178.934255 92.295936 
L 179.807345 91.986747 
L 180.680436 91.680025 
L 181.553527 91.377638 
L 182.426618 91.081504 
L 183.299709 90.793574 
L 184.1728 90.515808 
L 185.045891 90.250156 
L 185.918982 89.998535 
L 186.792073 89.762806 
L 187.665164 89.544749 
L 188.538255 89.346045 
L 189.411345 89.168251 
L 190.284436 89.012781 
L 191.157527 88.880889 
L 192.030618 88.773648 
L 192.903709 88.691938 
L 193.7768 88.636435 
L 194.649891 88.607601 
L 195.522982 88.605676 
L 196.396073 88.630675 
L 197.269164 88.682391 
L 198.142255 88.760394 
L 199.015345 88.864037 
L 199.888436 88.992469 
L 200.761527 89.144643 
L 201.634618 89.319331 
L 202.507709 89.51514 
L 203.3808 89.730532 
L 204.253891 89.963844 
L 205.126982 90.213307 
L 206.000073 90.477071 
L 206.873164 90.753225 
L 207.746255 91.039823 
L 208.619345 91.334905 
L 209.492436 91.636517 
L 210.365527 91.942735 
L 211.238618 92.251684 
L 212.111709 92.561555 
L 212.9848 92.87062 
L 213.857891 93.177253 
L 214.730982 93.479932 
L 215.604073 93.777259 
L 216.477164 94.067964 
L 217.350255 94.350907 
L 218.223345 94.62509 
L 219.096436 94.88965 
L 219.969527 95.143864 
L 220.842618 95.387147 
L 221.715709 95.619042 
L 222.5888 95.839224 
L 223.461891 96.047484 
L 224.334982 96.243727 
L 225.208073 96.427963 
L 226.081164 96.600296 
L 226.954255 96.760916 
L 227.827345 96.910085 
L 228.700436 97.048135 
L 229.573527 97.175451 
L 230.446618 97.292463 
L 231.319709 97.399639 
L 232.1928 97.497474 
" clip-path="url(#p6fc27910ad)" style="fill: none; stroke-dasharray: 3.33,1.44; stroke-dashoffset: 0; stroke: #7052a3; stroke-width: 0.9"/>
   </g>
   <g id="text_1">
    <text style="fill: #17212b; font: 700 7px 'DejaVu Sans'; text-anchor: start" x="7.4592" y="12.143066" transform="rotate(-0 7.4592 12.143066)">An executable residual is not a transfer guarantee</text>
   </g>
   <g id="text_2">
    <text style="fill: #17212b; font: 700 5.7px 'DejaVu Sans'; text-anchor: start" x="10.91664" y="35.904189" transform="rotate(-0 10.91664 35.904189)">TARGET-TRAINED KPI</text>
   </g>
   <g id="text_3">
    <text style="fill: #667085; font: 4.3px 'DejaVu Sans'; text-anchor: middle" x="63.0252" y="102.59172" transform="rotate(-0 63.0252 102.59172)">separated</text>
   </g>
   <g id="text_4">
    <text style="fill: #17212b; font: 700 5.7px 'DejaVu Sans'; text-anchor: start" x="136.86624" y="35.904189" transform="rotate(-0 136.86624 35.904189)">UNSEEN SHIFTED KPI</text>
   </g>
   <g id="text_5">
    <text style="fill: #667085; font: 4.3px 'DejaVu Sans'; text-anchor: middle" x="188.9748" y="102.59172" transform="rotate(-0 188.9748 102.59172)">overlap</text>
   </g>
   <g id="patch_38">
    <path d="M 119.593269 64.93032 
Q 126.000154 64.93032 131.400809 64.93032 
" style="fill: none; stroke: #17212b; stroke-width: 0.9; stroke-linecap: round"/>
    <path d="M 128.520809 63.49032 
L 131.400809 64.93032 
L 128.520809 66.37032 
z
" style="fill: #17212b; stroke: #17212b; stroke-width: 0.9; stroke-linecap: round"/>
   </g>
   <g id="text_6">
    <g id="patch_39">
     <path d="M 114.833578 57.405469 
L 137.166422 57.405469 
L 137.166422 52.920656 
L 114.833578 52.920656 
z
" style="fill: #ffffff"/>
    </g>
    <text style="fill: #17212b; font: 700 4.2px 'DejaVu Sans'; text-anchor: middle" x="126" y="56.322" transform="rotate(-0 126 56.322)">same API</text>
   </g>
   <g id="text_7">
    <text style="fill: #17212b; font: 700 5.7px 'DejaVu Sans'; text-anchor: start" x="10.91664" y="139.204029" transform="rotate(-0 10.91664 139.204029)">PATTERN COVERAGE</text>
   </g>
   <g id="text_8">
    <text style="fill: #667085; font: 4.55px 'DejaVu Sans'" transform="translate(10.91664 149.736233)">20 generators x 8 variants</text>
    <text style="fill: #667085; font: 4.55px 'DejaVu Sans'" transform="translate(10.91664 154.831238)">random transforms + context incidents</text>
    <text style="fill: #667085; font: 4.55px 'DejaVu Sans'" transform="translate(10.91664 159.926242)">-&gt; one benchmark-independent checkpoint</text>
   </g>
   <g id="text_9">
    <text style="fill: #17212b; font: 700 5.7px 'DejaVu Sans'; text-anchor: start" x="136.86624" y="139.204029" transform="rotate(-0 136.86624 139.204029)">RELIABILITY FLOOR</text>
   </g>
   <g id="text_10">
    <text style="fill: #667085; font: 4.55px 'DejaVu Sans'" transform="translate(136.86624 149.736233)">rolling median + spectral + MAD</text>
    <text style="fill: #667085; font: 4.55px 'DejaVu Sans'" transform="translate(136.86624 154.831238)">fixed 85% guard budget under shift</text>
    <text style="fill: #667085; font: 4.55px 'DejaVu Sans'" transform="translate(136.86624 159.926242)">-&gt; inspectable fallback evidence</text>
   </g>
   <g id="patch_40">
    <path d="M 63.0252 106.822585 
Q 63.0252 117.658146 63.0252 127.487476 
" style="fill: none; stroke: #7052a3; stroke-width: 0.9; stroke-linecap: round"/>
    <path d="M 64.4652 124.607476 
L 63.0252 127.487476 
L 61.5852 124.607476 
z
" style="fill: #7052a3; stroke: #7052a3; stroke-width: 0.9; stroke-linecap: round"/>
   </g>
   <g id="patch_41">
    <path d="M 188.9748 106.822585 
Q 188.9748 117.658146 188.9748 127.487476 
" style="fill: none; stroke: #d99a00; stroke-width: 0.9; stroke-linecap: round"/>
    <path d="M 190.4148 124.607476 
L 188.9748 127.487476 
L 187.5348 124.607476 
z
" style="fill: #d99a00; stroke: #d99a00; stroke-width: 0.9; stroke-linecap: round"/>
   </g>
   <g id="text_11">
    <text style="fill: #17212b; font: 700 5.1px 'DejaVu Sans'; text-anchor: middle" x="126" y="197.28324" transform="rotate(-0 126 197.28324)">TShape-Zero+ = 15% learned shape evidence + 85% residual guard</text>
   </g>
   <g id="text_12">
    <text style="fill: #667085; font: 4.65px 'DejaVu Sans'; text-anchor: middle" x="126" y="208.04364" transform="rotate(-0 126 208.04364)">Both channels are returned, measured, and ablated separately.</text>
   </g>
  </g>
 </g>
 <defs>
  <clipPath id="p6fc27910ad">
   <rect x="2.52" y="2.52" width="246.96" height="215.208"/>
  </clipPath>
 </defs>
</svg>
